<?xml version="1.0" encoding="iso-8859-1"?>
<!-- Uploaded to: SVG Repo, www.svgrepo.com, Generator: SVG Repo Mixer Tools -->
<svg height="800px" width="800px" version="1.1" id="Layer_1" xmlns="http://www.w3.org/2000/svg" xmlns:xlink="http://www.w3.org/1999/xlink" 
	 viewBox="0 0 511.999 511.999" xml:space="preserve">
<path style="fill:#A3875E;" d="M310.13,405.947c-8.586-3.789-18.413-4.999-28.347-2.823l-41.517,9.085
	c-7.981,1.751-16.301,1.104-23.921-1.847l-34.077-4.415v95.44h-25.046l-26.553-109.831c0,0-67.327-21.735-60.217-82.079
	c7.111-60.344,69.874-174.633,69.874-174.633H89.948c-2.176,0-3.937-1.762-3.937-3.937c0-6.782,2.091-13.223,5.773-18.562
	c3.683-5.349,8.947-9.594,15.293-12.024l62.636-23.932l33.197-12.693l-20.164,164.115c-1.677,16.121,2.335,32.316,11.324,45.805
	c5.391,8.098,14.444,12.841,23.985,12.841c1.486,0,2.972-0.117,4.468-0.35l134.028-21.003c18.7-2.929,37.845,0.212,54.624,8.957
	l30.894,16.11l-48.277,10.857l22.924,24.144l-45.051,67.582v108.632h-26.956l-7.408-59.017
	c-2.101-16.768-12.905-30.14-27.158-36.423H310.13z"/>
<path style="fill:#6E5B3F;" d="M169.713,10.612l33.197,53.085L169.713,76.39C153.083,41.346,169.713,10.612,169.713,10.612z"/>
<path d="M84.842,255.137c1.252,0.481,2.538,0.709,3.804,0.709c4.265,0,8.289-2.591,9.909-6.81l0.492-1.276
	c2.123-5.462-0.585-11.612-6.047-13.736c-5.466-2.119-11.614,0.585-13.736,6.048l-0.522,1.352
	C76.639,246.896,79.371,253.035,84.842,255.137z"/>
<path d="M69.313,268.096c-4.924,15.492-8.088,28.996-9.4,40.138c-3.354,28.461,7.463,53.754,31.282,73.142
	c11.606,9.446,23.605,15.237,30.47,18.099l22.072,91.298h-7.625c-5.861,0-10.613,4.752-10.613,10.613s4.751,10.613,10.613,10.613
	h21.109h25.046c5.861,0,10.613-4.752,10.613-10.613v-83.364l20.901,2.708c9.244,3.31,19.157,3.95,28.754,1.845l41.519-9.086
	c7.382-1.615,14.918-0.867,21.791,2.165c0.018,0.007,0.036,0.013,0.053,0.02c11.508,5.089,19.309,15.557,20.87,28.016l5.91,47.082
	h-2.861c-5.861,0-10.613,4.752-10.613,10.613s4.751,10.613,10.613,10.613h14.855c0.007,0,0.015,0.001,0.022,0.001
	c0.005,0,0.011-0.001,0.017-0.001h26.953c5.861,0,10.613-4.752,10.613-10.613V395.967l43.269-64.909
	c2.749-4.124,2.277-9.6-1.135-13.195l-10.049-10.585l30.035-6.754c4.346-0.976,7.619-4.563,8.195-8.98
	c0.576-4.417-1.667-8.724-5.616-10.784l-30.896-16.112c-18.659-9.724-40.381-13.288-61.172-10.03l-134.019,21.002
	c-0.967,0.151-1.893,0.224-2.834,0.224c-6.106,0-11.77-3.031-15.154-8.115c-7.588-11.386-10.999-25.136-9.609-38.724l20.151-164.016
	c0.005-0.045,0.003-0.089,0.007-0.134c0.04-0.362,0.059-0.727,0.063-1.092c0.001-0.112-0.001-0.225-0.004-0.337
	c-0.008-0.336-0.033-0.672-0.073-1.007c-0.01-0.082-0.015-0.162-0.027-0.244c-0.061-0.418-0.142-0.834-0.254-1.246
	c-0.006-0.024-0.016-0.048-0.022-0.072c-0.102-0.366-0.227-0.728-0.37-1.087c-0.046-0.114-0.097-0.225-0.145-0.336
	c-0.116-0.264-0.244-0.524-0.383-0.781c-0.068-0.126-0.136-0.252-0.209-0.375c-0.041-0.069-0.073-0.14-0.116-0.209L178.716,4.984
	c-2.003-3.203-5.557-5.074-9.332-4.981c-3.775,0.119-7.203,2.235-9,5.557c-0.712,1.316-15.8,29.918-4.486,64.741L103.281,90.41
	c-8.246,3.158-15.244,8.662-20.233,15.908c-5.005,7.256-7.651,15.759-7.651,24.589c0,8.023,6.527,14.55,14.55,14.55h32.753
	c-8.211,15.849-21.238,41.89-33.232,69.726c-2.319,5.383,0.164,11.627,5.548,13.946c5.383,2.321,11.626-0.163,13.946-5.547
	c18.909-43.89,40.452-83.238,40.667-83.629c1.805-3.289,1.74-7.285-0.17-10.513c-1.91-3.227-5.383-5.208-9.133-5.208H97.648
	c0.656-2.073,1.621-4.047,2.877-5.868c2.55-3.704,6.128-6.516,10.339-8.128l79.361-30.327L172.212,226.52
	c-0.008,0.066-0.016,0.131-0.022,0.197c-1.926,18.522,2.707,37.269,13.045,52.782c7.326,11.003,19.594,17.574,32.819,17.574
	c2.019,0,4.071-0.16,6.111-0.478l134.027-21.003c16.336-2.562,33.412,0.24,48.074,7.881l5.191,2.707l-19.994,4.496
	c-3.726,0.838-6.716,3.614-7.826,7.269s-0.172,7.624,2.458,10.394l17.091,17.999l-40.352,60.533
	c-1.162,1.744-1.782,3.791-1.782,5.887v98.018h-6.979l-6.241-49.724c-2.486-19.835-14.859-36.507-33.115-44.675
	c-0.017-0.008-0.033-0.02-0.05-0.028c-11.799-5.941-18.894-13.689-21.689-23.683c-5.862-20.96,9.094-45.049,9.231-45.268
	c3.15-4.942,1.697-11.503-3.246-14.654c-4.941-3.149-11.502-1.697-14.653,3.247c-0.827,1.298-20.155,32.123-11.811,62.253
	c1.455,5.257,3.642,10.13,6.522,14.623l-41.025,8.977c-5.953,1.306-12.114,0.83-17.816-1.378c-0.795-0.308-1.624-0.518-2.469-0.628
	l-24.829-3.217v-22.492c0-5.86-4.751-10.613-10.613-10.613c-5.861,0-10.613,4.752-10.613,10.613v31.817v84.828h-6.081
	l-24.59-101.711c-0.864-3.573-3.539-6.453-7.032-7.599c-0.155-0.05-15.612-5.201-29.822-16.928
	c-17.827-14.714-25.613-32.821-23.139-53.817c1.156-9.805,4.032-21.982,8.55-36.193c1.776-5.585-1.313-11.554-6.899-13.33
	C77.054,259.421,71.089,262.511,69.313,268.096z M173.289,36.346l13.784,22.042l-11.314,4.324
	C172.762,52.933,172.47,43.862,173.289,36.346z"/>
<path d="M175.571,108.705v-3.056c0-5.86-4.751-10.613-10.613-10.613c-5.861,0-10.613,4.752-10.613,10.613v3.056
	c0,5.86,4.751,10.613,10.613,10.613C170.82,119.318,175.571,114.566,175.571,108.705z"/>
</svg>